<svg width="24" height="24" xmlns="http://www.w3.org/2000/svg">

 <g>
  <title>background</title>
  <rect fill="none" id="canvas_background" height="402" width="582" y="-1" x="-1"/>
 </g>
 <g>
  <title>Layer 1</title>
  <g id="Bounding_Boxes">
   <path id="svg_1" d="m0,0l24,0l0,24l-24,0l0,-24z" fill="none"/>
  </g>
  <g id="Outline">
   <g id="ui_x5F_spec_x5F_header"/>
   <g id="svg_2">
    <path fill="#86c540" id="svg_3" d="m4,6l-2,0l0,14c0,1.1 0.9,2 2,2l14,0l0,-2l-14,0l0,-14z"/>
    <path fill="#86c540" id="svg_4" d="m20,2l-12,0c-1.1,0 -2,0.9 -2,2l0,12c0,1.1 0.9,2 2,2l12,0c1.1,0 2,-0.9 2,-2l0,-12c0,-1.1 -0.9,-2 -2,-2zm0,14l-12,0l0,-12l12,0l0,12z"/>
    <rect fill="#86c540" id="svg_5" height="2" width="8" y="9" x="10"/>
    <rect fill="#86c540" id="svg_6" height="2" width="4" y="12" x="10"/>
    <rect fill="#86c540" id="svg_7" height="2" width="8" y="6" x="10"/>
   </g>
  </g>
 </g>
</svg>