<svg width="24" height="24" xmlns="http://www.w3.org/2000/svg">

 <g>
  <title>background</title>
  <rect fill="none" id="canvas_background" height="402" width="582" y="-1" x="-1"/>
 </g>
 <g>
  <title>Layer 1</title>
  <g display="none" id="Header_x2F_BG">
   <rect id="svg_1" height="520" width="520" fill="#86c540" y="-270" x="-50"/>
  </g>
  <g id="Bounding_Boxes">
   <g id="ui_x5F_spec_x5F_header_copy_3"/>
   <path id="svg_2" d="m0,0l24,0l0,24l-24,0l0,-24z" fill="none"/>
  </g>
  <g display="none" id="Rounded">
   <g display="inline" id="ui_x5F_spec_x5F_header_copy_5"/>
   <path id="svg_3" d="m11.5,2c-4.69,0 -8.5,3.81 -8.5,8.5s3.81,8.5 8.5,8.5l0.5,0l0,3c4.86,-2.34 8,-7 8,-11.5c0,-4.69 -3.81,-8.5 -8.5,-8.5zm1,14.5l-2,0l0,-2l2,0l0,2zm0.4,-4.78c-0.01,0.01 -0.02,0.03 -0.03,0.05c-0.05,0.08 -0.1,0.16 -0.14,0.24c-0.02,0.03 -0.03,0.07 -0.04,0.11c-0.03,0.07 -0.06,0.14 -0.08,0.21c-0.07,0.21 -0.1,0.43 -0.1,0.68l-0.87,0l0,0l-1.14,0c0,-0.51 0.08,-0.94 0.2,-1.3c0,-0.01 0,-0.02 0.01,-0.03c0.01,-0.04 0.04,-0.06 0.05,-0.1c0.06,-0.16 0.13,-0.3 0.22,-0.44c0.03,-0.05 0.07,-0.1 0.1,-0.15c0.03,-0.04 0.05,-0.09 0.08,-0.12l0.01,0.01c0.84,-1.1 2.21,-1.44 2.32,-2.68c0.09,-0.98 -0.61,-1.93 -1.57,-2.13c-1.04,-0.22 -1.98,0.39 -2.3,1.28c-0.14,0.36 -0.47,0.65 -0.88,0.65l-0.2,0c-0.6,0 -1.04,-0.59 -0.87,-1.17c0.55,-1.82 2.37,-3.09 4.43,-2.79c1.69,0.25 3.04,1.64 3.33,3.33c0.44,2.44 -1.63,3.03 -2.53,4.35z"/>
  </g>
  <g display="none" id="Sharp">
   <g display="inline" id="ui_x5F_spec_x5F_header_copy_4"/>
   <path id="svg_4" d="m11.5,2c-4.69,0 -8.5,3.81 -8.5,8.5s3.81,8.5 8.5,8.5l0.5,0l0,3c4.86,-2.34 8,-7 8,-11.5c0,-4.69 -3.81,-8.5 -8.5,-8.5zm1,14.5l-2,0l0,-2l2,0l0,2zm0,-3.5l-2,0c0,-3.25 3,-3 3,-5c0,-1.1 -0.9,-2 -2,-2s-2,0.9 -2,2l-2,0c0,-2.21 1.79,-4 4,-4s4,1.79 4,4c0,2.5 -3,2.75 -3,5z"/>
  </g>
  <g id="Outline">
   <g id="ui_x5F_spec_x5F_header"/>
   <g id="svg_5">
    <path fill="#86c540" id="svg_6" d="m11,23.59l0,-3.6c-5.01,-0.26 -9,-4.42 -9,-9.49c0,-5.24 4.26,-9.5 9.5,-9.5s9.5,4.26 9.5,9.5c0,4.95 -3.44,9.93 -8.57,12.4l-1.43,0.69zm0.5,-20.59c-4.14,0 -7.5,3.36 -7.5,7.5s3.36,7.5 7.5,7.5l1.5,0l0,2.3c3.64,-2.3 6,-6.08 6,-9.8c0,-4.14 -3.36,-7.5 -7.5,-7.5z"/>
    <rect fill="#86c540" id="svg_7" height="2" width="2" y="14.5" x="10.5"/>
    <path fill="#86c540" id="svg_8" d="m12.5,13l-2,0c0,-3.25 3,-3 3,-5c0,-1.1 -0.9,-2 -2,-2s-2,0.9 -2,2l-2,0c0,-2.21 1.79,-4 4,-4s4,1.79 4,4c0,2.5 -3,2.75 -3,5z"/>
   </g>
  </g>
  <g display="none" id="Duotone">
   <g display="inline" id="ui_x5F_spec_x5F_header_copy_2"/>
   <g id="svg_9" display="inline">
    <path id="svg_10" d="m11.5,3c-4.14,0 -7.5,3.36 -7.5,7.5s3.36,7.5 7.5,7.5l1.5,0l0,2.3c3.64,-2.3 6,-6.08 6,-9.8c0,-4.14 -3.36,-7.5 -7.5,-7.5zm1,13.5l-2,0l0,-2l2,0l0,2zm0,-3.5l-2,0c0,-3.25 3,-3 3,-5c0,-1.1 -0.9,-2 -2,-2s-2,0.9 -2,2l-2,0c0,-2.21 1.79,-4 4,-4s4,1.79 4,4c0,2.5 -3,2.75 -3,5z" opacity="0.3"/>
    <g id="svg_11">
     <path id="svg_12" d="m11.5,1c-5.24,0 -9.5,4.26 -9.5,9.5c0,5.07 3.99,9.23 9,9.49l0,3.6l1.43,-0.69c5.13,-2.47 8.57,-7.45 8.57,-12.4c0,-5.24 -4.26,-9.5 -9.5,-9.5zm1.5,19.3l0,-2.3l-1.5,0c-4.14,0 -7.5,-3.36 -7.5,-7.5s3.36,-7.5 7.5,-7.5s7.5,3.36 7.5,7.5c0,3.73 -2.36,7.51 -6,9.8z"/>
     <rect id="svg_13" height="2" width="2" y="14.5" x="10.5"/>
     <path id="svg_14" d="m11.5,4c-2.21,0 -4,1.79 -4,4l2,0c0,-1.1 0.9,-2 2,-2s2,0.9 2,2c0,2 -3,1.75 -3,5l2,0c0,-2.25 3,-2.5 3,-5c0,-2.21 -1.79,-4 -4,-4z"/>
    </g>
   </g>
  </g>
  <g display="none" id="Fill">
   <g display="inline" id="ui_x5F_spec_x5F_header_copy"/>
   <path id="svg_15" d="m11.5,2c-4.69,0 -8.5,3.81 -8.5,8.5s3.81,8.5 8.5,8.5l0.5,0l0,3c4.86,-2.34 8,-7 8,-11.5c0,-4.69 -3.81,-8.5 -8.5,-8.5zm1,14.5l-2,0l0,-2l2,0l0,2zm0,-3.5l-2,0c0,-3.25 3,-3 3,-5c0,-1.1 -0.9,-2 -2,-2s-2,0.9 -2,2l-2,0c0,-2.21 1.79,-4 4,-4s4,1.79 4,4c0,2.5 -3,2.75 -3,5z"/>
  </g>
  <g display="none" id="nyt_x5F_exporter_x5F_info"/>
 </g>
</svg>