<svg width="24" height="24" xmlns="http://www.w3.org/2000/svg">

 <g>
  <title>background</title>
  <rect fill="none" id="canvas_background" height="402" width="582" y="-1" x="-1"/>
 </g>
 <g>
  <title>Layer 1</title>
  <g display="none" id="Header_x2F_BG">
   <rect id="svg_1" height="520" width="520" fill="#86c540" y="-138" x="-94"/>
  </g>
  <g id="Bounding_Boxes">
   <g id="ui_x5F_spec_x5F_header_copy_3"/>
   <path id="svg_2" d="m0,0l24,0l0,24l-24,0l0,-24z" fill="none"/>
  </g>
  <g display="none" id="Rounded">
   <g display="inline" id="ui_x5F_spec_x5F_header_copy_5"/>
   <path id="svg_3" d="m19,3l-4.18,0c-0.42,-1.16 -1.52,-2 -2.82,-2s-2.4,0.84 -2.82,2l-4.18,0c-1.1,0 -2,0.9 -2,2l0,14c0,1.1 0.9,2 2,2l14,0c1.1,0 2,-0.9 2,-2l0,-14c0,-1.1 -0.9,-2 -2,-2zm-7,0c0.55,0 1,0.45 1,1s-0.45,1 -1,1s-1,-0.45 -1,-1s0.45,-1 1,-1zm1,14l-5,0c-0.55,0 -1,-0.45 -1,-1l0,0c0,-0.55 0.45,-1 1,-1l5,0c0.55,0 1,0.45 1,1l0,0c0,0.55 -0.45,1 -1,1zm3,-4l-8,0c-0.55,0 -1,-0.45 -1,-1l0,0c0,-0.55 0.45,-1 1,-1l8,0c0.55,0 1,0.45 1,1l0,0c0,0.55 -0.45,1 -1,1zm0,-4l-8,0c-0.55,0 -1,-0.45 -1,-1l0,0c0,-0.55 0.45,-1 1,-1l8,0c0.55,0 1,0.45 1,1l0,0c0,0.55 -0.45,1 -1,1z"/>
  </g>
  <g display="none" id="Sharp">
   <g display="inline" id="ui_x5F_spec_x5F_header_copy_4"/>
   <path id="svg_4" d="m21,3l-6.18,0c-0.42,-1.16 -1.52,-2 -2.82,-2s-2.4,0.84 -2.82,2l-6.18,0l0,18l18,0l0,-18zm-9,0c0.55,0 1,0.45 1,1s-0.45,1 -1,1s-1,-0.45 -1,-1s0.45,-1 1,-1zm2,14l-7,0l0,-2l7,0l0,2zm3,-4l-10,0l0,-2l10,0l0,2zm0,-4l-10,0l0,-2l10,0l0,2z"/>
  </g>
  <g id="Outline">
   <g id="ui_x5F_spec_x5F_header"/>
   <g id="svg_5">
    <rect fill="#86c540" id="svg_6" height="2" width="7" y="15" x="7"/>
    <rect fill="#86c540" id="svg_7" height="2" width="10" y="11" x="7"/>
    <rect fill="#86c540" id="svg_8" height="2" width="10" y="7" x="7"/>
    <path fill="#86c540" id="svg_9" d="m19,3l0,0l-4.18,0c-0.42,-1.16 -1.52,-2 -2.82,-2c-1.3,0 -2.4,0.84 -2.82,2l-4.18,0l0,0c-0.14,0 -0.27,0.01 -0.4,0.04c-0.39,0.08 -0.74,0.28 -1.01,0.55c-0.18,0.18 -0.33,0.4 -0.43,0.64c-0.1,0.23 -0.16,0.49 -0.16,0.77l0,14c0,0.27 0.06,0.54 0.16,0.78c0.1,0.24 0.25,0.45 0.43,0.64c0.27,0.27 0.62,0.47 1.01,0.55c0.13,0.02 0.26,0.03 0.4,0.03l0,0l14,0l0,0c1.1,0 2,-0.9 2,-2l0,-14c0,-1.1 -0.9,-2 -2,-2zm-7,-0.25c0.41,0 0.75,0.34 0.75,0.75c0,0.41 -0.34,0.75 -0.75,0.75c-0.41,0 -0.75,-0.34 -0.75,-0.75c0,-0.41 0.34,-0.75 0.75,-0.75zm7,16.25l-14,0l0,-14l14,0l0,14z"/>
   </g>
  </g>
  <g display="none" id="Duotone">
   <g display="inline" id="ui_x5F_spec_x5F_header_copy_2"/>
   <g id="svg_10" display="inline">
    <path id="svg_11" d="m5,5l0,14l14,0l0,-14l-14,0zm9,12l-7,0l0,-2l7,0l0,2zm3,-4l-10,0l0,-2l10,0l0,2zm0,-4l-10,0l0,-2l10,0l0,2z" opacity="0.3"/>
    <g id="svg_12">
     <rect id="svg_13" height="2" width="7" y="15" x="7"/>
     <rect id="svg_14" height="2" width="10" y="11" x="7"/>
     <rect id="svg_15" height="2" width="10" y="7" x="7"/>
     <path id="svg_16" d="m19,3l0,0l-4.18,0c-0.42,-1.16 -1.52,-2 -2.82,-2c-1.3,0 -2.4,0.84 -2.82,2l-4.18,0c-0.14,0 -0.27,0.01 -0.4,0.04c-0.39,0.08 -0.74,0.28 -1.01,0.55c-0.18,0.18 -0.33,0.4 -0.43,0.64s-0.16,0.49 -0.16,0.77l0,14c0,0.27 0.06,0.54 0.16,0.78c0.1,0.24 0.25,0.45 0.43,0.64c0.27,0.27 0.62,0.47 1.01,0.55c0.13,0.02 0.26,0.03 0.4,0.03l14,0l0,0c1.1,0 2,-0.9 2,-2l0,-14c0,-1.1 -0.9,-2 -2,-2zm-7,-0.25c0.41,0 0.75,0.34 0.75,0.75c0,0.41 -0.34,0.75 -0.75,0.75c-0.41,0 -0.75,-0.34 -0.75,-0.75c0,-0.41 0.34,-0.75 0.75,-0.75zm7,16.25l-14,0l0,-14l14,0l0,14z"/>
    </g>
   </g>
  </g>
  <g display="none" id="Fill">
   <g display="inline" id="ui_x5F_spec_x5F_header_copy"/>
   <path id="svg_17" d="m19,3l-4.18,0c-0.42,-1.16 -1.52,-2 -2.82,-2s-2.4,0.84 -2.82,2l-4.18,0c-1.1,0 -2,0.9 -2,2l0,14c0,1.1 0.9,2 2,2l14,0c1.1,0 2,-0.9 2,-2l0,-14c0,-1.1 -0.9,-2 -2,-2zm-7,0c0.55,0 1,0.45 1,1s-0.45,1 -1,1s-1,-0.45 -1,-1s0.45,-1 1,-1zm2,14l-7,0l0,-2l7,0l0,2zm3,-4l-10,0l0,-2l10,0l0,2zm0,-4l-10,0l0,-2l10,0l0,2z"/>
  </g>
  <g display="none" id="nyt_x5F_exporter_x5F_info">
   <g id="svg_18" display="inline">
    <path id="svg_19" d="m-2.29,7l0.83,1.25c0.22,0.32 0.4,0.62 0.59,0.95l0.04,0c0.19,-0.35 0.38,-0.65 0.58,-0.96l0.8,-1.24l1.14,0l-1.98,2.8l2.04,3l-1.2,0l-0.85,-1.31c-0.23,-0.34 -0.42,-0.66 -0.62,-1.01l-0.02,0c-0.19,0.35 -0.4,0.66 -0.61,1.01l-0.85,1.31l-1.16,0l2.06,-2.96l-1.96,-2.84l1.17,0z"/>
    <path id="svg_20" d="m2.77,8.89c0,-0.74 -0.02,-1.34 -0.05,-1.9l0.95,0l0.05,1l0.02,0c0.43,-0.71 1.12,-1.13 2.06,-1.13c1.4,0 2.46,1.19 2.46,2.95c0,2.09 -1.27,3.12 -2.64,3.12c-0.77,0 -1.44,-0.34 -1.79,-0.91l-0.01,0l0,3.15l-1.05,0l0,-6.28zm1.05,1.55c0,0.16 0.02,0.3 0.05,0.43c0.19,0.73 0.83,1.24 1.58,1.24c1.12,0 1.76,-0.91 1.76,-2.24c0,-1.17 -0.61,-2.17 -1.72,-2.17c-0.72,0 -1.39,0.52 -1.6,1.31c-0.04,0.13 -0.07,0.29 -0.07,0.43l0,1z"/>
    <path id="svg_21" d="m14.86,9.85c0,2.15 -1.49,3.08 -2.89,3.08c-1.57,0 -2.78,-1.15 -2.78,-2.99c0,-1.94 1.27,-3.08 2.88,-3.08c1.66,0 2.79,1.21 2.79,2.99zm-4.61,0.06c0,1.27 0.73,2.23 1.76,2.23c1.01,0 1.76,-0.95 1.76,-2.25c0,-0.98 -0.49,-2.23 -1.74,-2.23c-1.24,-0.01 -1.78,1.15 -1.78,2.25z"/>
    <path id="svg_22" d="m16.19,8.81c0,-0.68 -0.01,-1.27 -0.05,-1.81l0.92,0l0.04,1.14l0.05,0c0.26,-0.78 0.9,-1.27 1.61,-1.27c0.12,0 0.2,0.01 0.3,0.04l0,1c-0.11,-0.02 -0.22,-0.04 -0.36,-0.04c-0.74,0 -1.27,0.56 -1.42,1.36c-0.02,0.14 -0.05,0.31 -0.05,0.49l0,3.09l-1.04,0l0,-4z"/>
    <path id="svg_23" d="m21.67,5.33l0,1.67l1.51,0l0,0.8l-1.51,0l0,3.13c0,0.72 0.2,1.13 0.79,1.13c0.28,0 0.48,-0.04 0.61,-0.07l0.05,0.79c-0.2,0.08 -0.53,0.14 -0.94,0.14c-0.49,0 -0.89,-0.16 -1.14,-0.44c-0.3,-0.31 -0.41,-0.83 -0.41,-1.51l0,-3.17l-0.9,0l0,-0.8l0.9,0l0,-1.4l1.04,-0.27z"/>
    <path id="svg_24" d="m29.5,13.7l0,0.6l-6,0l0,-0.6l6,0z"/>
    <path id="svg_25" d="m1.49,24.49c0.02,1.43 0.94,2.01 1.99,2.01c0.76,0 1.21,-0.13 1.61,-0.3l0.18,0.76c-0.37,0.17 -1.01,0.36 -1.93,0.36c-1.79,0 -2.85,-1.18 -2.85,-2.93s1.03,-3.13 2.72,-3.13c1.9,0 2.4,1.67 2.4,2.73c0,0.22 -0.02,0.38 -0.04,0.49l-4.08,0l0,0.01zm3.09,-0.76c0.01,-0.67 -0.28,-1.71 -1.46,-1.71c-1.07,0 -1.54,0.98 -1.62,1.71l3.08,0z"/>
    <path id="svg_26" d="m7.02,27.2l0,-5l-0.81,0l0,-0.8l0.82,0l0,-0.28c0,-0.82 0.18,-1.56 0.67,-2.03c0.4,-0.38 0.92,-0.54 1.42,-0.54c0.37,0 0.7,0.08 0.9,0.17l-0.14,0.82c-0.16,-0.07 -0.37,-0.13 -0.67,-0.13c-0.9,0 -1.13,0.79 -1.13,1.68l0,0.31l1.4,0l0,0.8l-1.4,0l0,5l-1.06,0z"/>
    <path id="svg_27" d="m10.17,26.12c0.31,0.2 0.86,0.42 1.39,0.42c0.77,0 1.13,-0.38 1.13,-0.86c0,-0.5 -0.3,-0.78 -1.08,-1.07c-1.04,-0.37 -1.54,-0.95 -1.54,-1.64c0,-0.94 0.76,-1.7 2,-1.7c0.59,0 1.1,0.17 1.43,0.36l-0.26,0.77c-0.23,-0.14 -0.65,-0.34 -1.19,-0.34c-0.62,0 -0.97,0.36 -0.97,0.79c0,0.48 0.35,0.7 1.1,0.98c1.01,0.38 1.52,0.89 1.52,1.75c0,1.02 -0.79,1.74 -2.17,1.74c-0.64,0 -1.22,-0.16 -1.63,-0.4l0.27,-0.8z"/>
    <path id="svg_28" d="m20.54,24.35l-5.56,2.85l0,-0.83l4.73,-2.35l0,-0.02l-4.73,-2.35l0,-0.83l5.56,2.85l0,0.68z"/>
   </g>
  </g>
 </g>
</svg>